<svg xmlns="http://www.w3.org/2000/svg" viewBox="0 0 64 64" width="64" height="64">
  <defs>
    <linearGradient id="bg" x1="0" y1="0" x2="0" y2="1">
      <stop offset="0%" stop-color="#7ed4ff"/>
      <stop offset="100%" stop-color="#3a9eff"/>
    </linearGradient>
    <linearGradient id="pin" x1="0" y1="0" x2="0" y2="1">
      <stop offset="0%" stop-color="#ff7a7a"/>
      <stop offset="100%" stop-color="#e63946"/>
    </linearGradient>
  </defs>
  <rect x="2" y="2" width="60" height="60" rx="14" fill="url(#bg)"/>
  <path d="M8 38 L22 28 L34 36 L50 24 L56 30 L56 56 L8 56 Z" fill="#a8dba8" opacity="0.9"/>
  <path d="M8 46 L22 40 L34 46 L50 36 L56 40 L56 56 L8 56 Z" fill="#7ec27e" opacity="0.85"/>
  <path d="M14 14 Q24 26 14 36 Q4 26 14 14 Z" fill="url(#pin)"/>
  <circle cx="14" cy="22" r="4" fill="#fff"/>
  <path d="M44 8 Q52 18 44 28 Q36 18 44 8 Z" fill="url(#pin)"/>
  <circle cx="44" cy="16" r="3" fill="#fff"/>
</svg>
